<svg xmlns="http://www.w3.org/2000/svg" id="Layer_1" x="0" y="0" version="1.1" viewBox="0 0 125 102" xml:space="preserve"><style type="text/css">.st3{fill:#de156c}.st4{fill:url(#SVGID_1_)}.st5{fill:#47529d}.st6{fill:url(#SVGID_2_)}.st7{fill:#252960}.st8{fill:url(#SVGID_3_)}</style><g><g transform="translate(108 98) translate(64 54)"><path d="M-79.6-86l-22-12.7c-1.9-1.1-4.4-0.5-5.5,1.5c-0.4,0.6-0.5,1.3-0.5,2v25.4c0,1.4,0.8,2.7,2,3.5l26,15 c1.2,0.7,2.8,0.7,4,0l26-15c1.2-0.7,2-2,2-3.5v-25.4c0-2.2-1.8-4-4-4c-0.7,0-1.4,0.2-2,0.5l-22,12.7C-76.8-85.3-78.3-85.3-79.6-86 z" class="st3"/><linearGradient id="SVGID_1_" x1="-916.093" x2="-916.093" y1="430.414" y2="429.414" gradientTransform="matrix(30 0 0 -46.1386 27420.2266 19759.4629)" gradientUnits="userSpaceOnUse"><stop offset="0" style="stop-color:#fc72c7"/><stop offset="1" style="stop-color:#de156c"/></linearGradient><path d="M-77.6-82.5v25.4c0,2.2,1.8,4,4,4c0.7,0,1.4-0.2,2-0.5l22-12.7c1.2-0.7,2-2,2-3.5v-25.4c0-2.2-1.8-4-4-4 c-0.7,0-1.4,0.2-2,0.5l-22,12.7C-76.8-85.3-77.6-83.9-77.6-82.5z" class="st4"/></g><g transform="translate(108 98) translate(32)"><path d="M-53.6-96.7l-22,12.7c-1.2,0.7-2.8,0.7-4,0l-22-12.7c-1.9-1.1-4.4-0.5-5.5,1.5c-0.4,0.6-0.5,1.3-0.5,2v25.4 c0,1.4,0.8,2.7,2,3.5l26,15c1.2,0.7,2.8,0.7,4,0l26-15c1.2-0.7,2-2,2-3.5v-25.4c0-2.2-1.8-4-4-4C-52.3-97.2-53-97-53.6-96.7z" class="st5"/><linearGradient id="SVGID_2_" x1="-884.093" x2="-884.093" y1="484.414" y2="483.414" gradientTransform="matrix(30 0 0 -46.1386 26460.2266 22252.9473)" gradientUnits="userSpaceOnUse"><stop offset="0" style="stop-color:#8896db"/><stop offset="1" style="stop-color:#47529d"/></linearGradient><path d="M-53.6-96.7l-22,12.7c-1.2,0.7-2,2-2,3.5v25.4c0,2.2,1.8,4,4,4c0.7,0,1.4-0.2,2-0.5l22-12.7 c1.2-0.7,2-2,2-3.5v-25.4c0-2.2-1.8-4-4-4C-52.3-97.2-53-97-53.6-96.7z" class="st6"/></g><g transform="translate(108 98) translate(0 52)"><path d="M-79.6-84l-22-12.7c-1.9-1.1-4.4-0.5-5.5,1.5c-0.4,0.6-0.5,1.3-0.5,2v25.4c0,1.4,0.8,2.7,2,3.5l26,15 c1.2,0.7,2.8,0.7,4,0l26-15c1.2-0.7,2-2,2-3.5v-25.4c0-2.2-1.8-4-4-4c-0.7,0-1.4,0.2-2,0.5l-22,12.7C-76.8-83.3-78.3-83.3-79.6-84 z" class="st7"/><linearGradient id="SVGID_3_" x1="-852.093" x2="-852.093" y1="432.414" y2="431.414" gradientTransform="matrix(30 0 0 -46.1386 25500.2266 19853.7383)" gradientUnits="userSpaceOnUse"><stop offset="0" style="stop-color:#757cba"/><stop offset="1" style="stop-color:#252960"/></linearGradient><path d="M-77.6-80.5v25.4c0,2.2,1.8,4,4,4c0.7,0,1.4-0.2,2-0.5l22-12.7c1.2-0.7,2-2,2-3.5v-25.4c0-2.2-1.8-4-4-4 c-0.7,0-1.4,0.2-2,0.5l-22,12.7C-76.8-83.3-77.6-81.9-77.6-80.5z" class="st8"/></g></g></svg>